<?xml version="1.0" standalone="no"?>
<!DOCTYPE svg PUBLIC "-//W3C//DTD SVG 20010904//EN"
 "http://www.w3.org/TR/2001/REC-SVG-20010904/DTD/svg10.dtd">
<svg version="1.0" xmlns="http://www.w3.org/2000/svg"
 width="1056.000000pt" height="1056.000000pt" viewBox="0 0 1056.000000 1056.000000"
 preserveAspectRatio="xMidYMid meet">
<metadata>
Created by potrace 1.11, written by Peter Selinger 2001-2013
</metadata>
<g transform="translate(0.000000,1056.000000) scale(0.100000,-0.100000)"
fill="#000000" stroke="none">
<path d="M4835 8423 c-30 -6 -169 -54 -175 -62 -3 -3 -23 -18 -45 -32 -40 -26
-155 -133 -155 -144 0 -3 -9 -16 -21 -28 -48 -51 -157 -245 -214 -382 -20 -47
-76 -195 -79 -210 -2 -5 -6 -18 -10 -27 -4 -9 -9 -25 -11 -35 -2 -10 -4 -19
-5 -20 -2 -2 -3 -6 -4 -10 -1 -5 -15 -48 -30 -98 -15 -49 -30 -96 -31 -105 -2
-8 -13 -49 -24 -90 -11 -41 -22 -86 -25 -100 -2 -14 -14 -65 -27 -115 -12 -49
-23 -99 -25 -110 -3 -19 -5 -32 -19 -95 -8 -34 -45 -229 -50 -260 -2 -14 -7
-36 -10 -50 -6 -30 -12 -64 -35 -215 -7 -44 -13 -87 -15 -95 -1 -8 -6 -39 -10
-67 -4 -29 -11 -55 -16 -59 -5 -3 -9 1 -9 8 0 7 -19 51 -41 98 -23 47 -58 121
-79 165 -21 44 -63 134 -95 200 -31 66 -78 165 -104 220 -26 55 -53 111 -59
125 -7 14 -16 32 -21 40 -5 8 -18 35 -29 60 -11 25 -51 108 -87 185 -37 77
-84 176 -105 220 -21 44 -62 132 -93 195 -30 63 -80 169 -112 235 -31 66 -66
139 -77 162 -22 46 -29 47 -50 5 -17 -33 -59 -111 -238 -437 -75 -137 -155
-284 -177 -325 -23 -41 -57 -104 -77 -138 -20 -35 -36 -68 -36 -72 0 -5 -6
-15 -12 -22 -7 -7 -21 -29 -30 -48 -9 -19 -35 -66 -56 -105 -21 -38 -54 -99
-74 -135 -20 -36 -71 -130 -115 -210 -44 -80 -94 -170 -110 -200 -16 -30 -46
-84 -65 -120 -40 -72 -121 -221 -176 -320 -19 -36 -70 -129 -114 -208 -43 -79
-78 -148 -78 -153 0 -5 -4 -9 -10 -9 -5 0 -10 -7 -10 -15 0 -11 -13 -15 -52
-16 -29 -1 -57 0 -63 1 -5 1 -39 1 -75 0 -82 -2 -76 -2 -132 1 -47 1 -53 7
-64 52 -1 4 -3 9 -4 12 -1 3 -3 8 -4 13 -2 9 -36 123 -40 137 -2 6 -4 13 -5
17 -1 4 -6 20 -11 35 -15 49 -62 208 -65 218 -1 6 -5 17 -8 25 -3 8 -8 24 -10
35 -3 11 -15 52 -27 90 -11 39 -23 77 -25 85 -3 8 -11 38 -19 65 -8 28 -29 97
-46 155 -18 58 -34 112 -36 120 -2 8 -15 53 -29 100 -15 47 -28 90 -29 95 -1
6 -9 30 -16 55 -7 25 -15 50 -16 55 -2 6 -12 42 -24 80 -12 39 -22 75 -24 80
-1 6 -11 37 -21 70 -10 33 -19 66 -21 72 -1 7 -12 42 -23 77 -12 36 -23 73
-24 83 -2 10 -7 25 -10 33 -7 18 -47 153 -51 172 -2 7 -8 26 -14 41 -7 16 -12
33 -12 39 0 5 -6 8 -13 5 -17 -7 -258 -78 -277 -82 -23 -5 -154 -47 -162 -51
-3 -2 3 -35 14 -72 11 -37 23 -80 28 -97 5 -16 23 -77 40 -135 28 -91 50 -165
65 -220 2 -8 25 -82 50 -165 25 -82 47 -157 49 -165 1 -8 6 -22 9 -30 3 -8 22
-71 42 -140 20 -69 49 -168 65 -220 15 -52 44 -151 64 -220 37 -125 93 -312
102 -340 3 -8 5 -16 5 -17 0 -2 5 -17 10 -35 35 -113 37 -126 20 -130 -9 -2
-29 -1 -46 2 -16 3 -52 3 -80 0 -27 -3 -66 -3 -85 0 -19 3 -56 3 -83 2 l-47
-4 2 -241 c3 -197 6 -241 17 -239 7 1 27 2 45 2 31 0 41 0 96 0 59 1 105 1
125 0 11 -1 27 -1 35 -1 68 3 173 1 179 -4 5 -2 12 -19 16 -37 4 -18 9 -35 10
-38 1 -3 4 -12 8 -20 5 -12 21 -69 33 -115 1 -5 19 -64 39 -130 20 -66 38
-124 39 -130 2 -5 6 -23 11 -39 8 -29 -15 -90 -40 -108 -5 -4 -7 -8 -3 -8 4 0
-13 -34 -37 -75 -25 -42 -45 -82 -45 -89 0 -8 -4 -16 -9 -18 -5 -1 -29 -41
-53 -88 -25 -47 -69 -128 -98 -180 -29 -52 -69 -124 -88 -160 -19 -36 -43 -78
-52 -95 -9 -16 -41 -75 -70 -130 -30 -55 -56 -102 -59 -105 -3 -3 -22 -36 -41
-75 -19 -38 -38 -71 -42 -73 -5 -2 -8 -8 -8 -13 0 -4 -34 -70 -76 -146 -42
-76 -91 -166 -110 -200 -19 -34 -31 -64 -26 -66 11 -7 70 -40 137 -77 33 -18
83 -45 110 -60 28 -15 75 -41 106 -59 l57 -31 51 90 c28 49 51 92 51 94 0 2
20 39 45 80 25 42 45 79 45 81 0 2 34 65 75 140 41 74 75 140 75 145 0 6 4 10
9 10 5 0 13 10 17 22 4 12 40 83 82 158 41 74 88 160 105 190 110 205 137 246
137 209 0 -16 151 -315 198 -392 23 -37 42 -72 42 -77 0 -6 5 -10 10 -10 6 0
10 -5 10 -10 0 -9 97 -160 131 -205 122 -159 275 -320 369 -385 19 -13 37 -27
40 -31 16 -22 161 -94 255 -127 83 -29 115 -34 232 -37 205 -6 377 58 577 215
43 33 176 169 221 225 26 33 51 62 54 65 3 3 20 25 36 50 17 25 33 47 38 48 4
2 7 9 7 16 0 7 9 21 20 31 11 10 20 22 20 26 0 5 17 35 37 66 57 89 85 142
184 343 129 263 196 421 293 695 26 72 51 139 56 150 5 11 12 33 17 49 9 28 9
28 40 -35 29 -58 92 -192 193 -404 48 -101 153 -321 192 -402 16 -34 30 -66
30 -70 -1 -4 7 -16 16 -27 9 -10 16 -20 15 -22 -2 -4 42 -99 145 -314 25 -52
46 -97 47 -100 1 -3 25 -53 53 -112 29 -60 75 -156 103 -215 87 -182 154 -324
204 -428 96 -204 107 -225 111 -225 3 0 3 4 0 9 -4 5 -3 11 2 13 4 1 142 271
306 598 164 327 339 676 389 775 50 99 91 182 92 185 1 3 30 61 65 130 35 69
87 172 116 230 l53 105 21 -50 c77 -178 348 -683 372 -693 4 -2 8 -7 8 -12 0
-15 187 -290 214 -315 6 -6 27 -30 46 -55 78 -101 192 -216 299 -300 58 -46
163 -110 179 -110 6 0 12 -4 12 -10 0 -5 8 -10 18 -10 10 0 22 -4 28 -9 5 -5
43 -19 84 -32 100 -30 296 -33 380 -6 71 24 74 25 80 23 3 0 19 8 35 20 17 11
45 26 63 33 17 8 32 17 32 22 0 5 5 9 10 9 40 0 330 315 330 358 0 5 7 15 15
22 8 7 21 24 28 39 86 162 139 270 166 336 19 44 39 94 46 110 7 17 25 64 39
105 15 41 34 91 41 110 15 39 36 105 39 123 1 7 4 17 8 22 3 6 13 35 21 65 72
258 118 429 122 452 3 15 9 38 14 51 6 14 7 27 4 30 -3 3 -1 12 3 19 5 7 10
20 11 29 1 8 6 26 11 39 8 20 13 15 53 -56 70 -123 74 -129 80 -134 3 -3 12
-20 20 -37 8 -18 17 -33 21 -33 5 0 8 -4 8 -9 0 -9 132 -238 150 -258 5 -7 10
-15 10 -17 0 -5 34 -64 90 -156 70 -116 186 -318 188 -327 2 -7 7 -13 11 -13
4 0 18 -22 32 -50 13 -27 27 -50 32 -50 4 0 7 -4 7 -10 0 -5 27 -55 60 -110
33 -55 60 -105 60 -110 0 -6 4 -10 9 -10 5 0 12 -8 16 -19 3 -10 48 -89 100
-176 52 -87 95 -160 95 -161 0 -6 63 -108 70 -114 3 -3 12 -18 20 -35 30 -61
85 -145 95 -144 5 0 22 8 37 17 14 9 57 35 95 56 37 22 70 43 71 48 2 4 12 8
22 8 10 0 21 4 25 9 3 6 31 24 63 42 101 57 100 43 15 187 -41 70 -82 138 -91
152 -9 14 -17 31 -18 39 -2 8 -7 17 -12 20 -7 5 -94 149 -172 287 -10 17 -24
42 -32 55 -7 13 -19 29 -25 37 -7 7 -13 20 -13 28 0 8 -5 14 -10 14 -6 0 -9 3
-8 7 1 5 -9 26 -23 48 -13 22 -30 49 -36 60 -7 11 -34 56 -60 100 -26 44 -53
89 -59 100 -21 38 -52 90 -141 240 -49 83 -92 157 -96 165 -4 8 -15 27 -25 42
-9 15 -42 69 -72 120 -30 51 -60 102 -67 113 -7 11 -17 32 -24 48 -6 15 -14
27 -19 27 -4 0 -10 8 -14 18 -6 17 -14 33 -78 137 -60 100 -79 136 -74 144 3
4 26 5 50 1 25 -4 49 -3 55 3 5 5 11 5 15 -1 3 -5 22 -6 45 -2 22 4 45 4 52
-1 7 -4 17 -5 22 -2 5 3 57 4 115 3 59 -1 113 -1 120 -1 6 1 27 1 45 1 17 1
50 1 72 1 22 0 49 0 60 -1 11 -1 27 -1 35 0 8 0 24 0 35 0 31 -2 185 -2 230 0
11 0 35 0 53 0 19 0 32 5 33 12 6 60 3 447 -3 459 -6 13 -16 15 -53 9 -25 -4
-48 -4 -50 0 -3 5 -20 5 -37 1 -18 -4 -44 -5 -58 -4 -38 5 -122 3 -131 -2 -4
-3 -10 -1 -13 4 -3 5 -21 6 -38 2 -18 -4 -44 -5 -58 -4 -38 5 -122 3 -131 -2
-4 -3 -10 -1 -13 4 -3 5 -21 6 -38 2 -18 -4 -44 -5 -58 -4 -38 5 -122 3 -131
-2 -4 -3 -10 -1 -13 4 -3 5 -21 6 -38 2 -18 -4 -42 -6 -53 -4 -38 4 -60 5
-122 3 -34 -1 -66 1 -72 4 -5 4 -12 2 -15 -3 -4 -5 -14 -8 -24 -6 -9 2 -40 4
-68 4 l-52 1 13 63 c7 34 16 80 19 102 6 38 11 71 20 125 3 14 5 25 6 25 2 0
2 3 15 95 4 30 8 57 10 60 2 3 6 27 9 54 4 27 9 52 10 55 2 3 7 29 10 56 4 28
11 68 16 90 5 22 12 65 15 95 4 30 9 58 12 63 3 5 7 23 9 40 3 31 9 75 19 127
10 54 17 96 20 115 2 11 8 48 15 83 6 35 13 75 15 90 2 15 6 38 9 52 3 14 7
43 11 65 3 22 7 47 10 55 2 8 6 33 10 55 5 35 18 111 29 170 2 11 7 40 11 65
11 70 14 93 20 120 8 37 13 70 20 120 3 25 8 52 10 60 2 8 7 31 10 50 3 19 15
87 26 150 11 63 22 129 25 145 2 17 6 41 9 55 3 14 7 39 10 55 3 17 7 44 10
60 3 17 8 46 11 65 3 19 7 40 9 47 5 14 -11 26 -40 30 -11 2 -45 8 -75 14 -30
5 -71 12 -90 15 -19 2 -48 7 -65 11 -16 3 -37 7 -45 9 -8 1 -35 5 -60 9 -90
14 -93 13 -101 -25 -4 -19 -10 -55 -13 -80 -3 -25 -7 -52 -10 -60 -3 -8 -7
-28 -10 -45 -11 -72 -18 -115 -31 -190 -8 -44 -17 -96 -20 -115 -3 -19 -7 -44
-9 -55 -7 -36 -16 -90 -21 -115 -3 -14 -7 -41 -10 -60 -3 -19 -7 -46 -10 -60
-3 -14 -7 -41 -10 -60 -7 -43 -13 -77 -20 -110 -2 -13 -7 -42 -10 -65 -3 -22
-8 -47 -10 -55 -3 -8 -7 -31 -10 -50 -2 -19 -7 -48 -10 -65 -3 -16 -7 -43 -10
-60 -3 -16 -7 -39 -9 -51 -2 -11 -14 -79 -26 -150 -11 -71 -23 -140 -26 -154
-2 -14 -7 -41 -9 -60 -3 -19 -7 -42 -10 -50 -3 -8 -7 -32 -9 -52 -4 -32 -15
-94 -30 -173 -2 -11 -7 -40 -11 -65 -4 -25 -9 -52 -10 -60 -1 -8 -6 -35 -10
-60 -14 -87 -16 -95 -26 -104 -6 -6 -9 -6 -9 0 0 6 -25 53 -56 105 -31 51 -65
108 -75 126 -93 162 -145 249 -151 251 -5 2 -8 8 -8 12 0 5 -31 61 -70 126
-38 64 -70 118 -70 121 0 2 -11 20 -24 41 -26 41 -208 349 -335 567 -45 77
-86 147 -91 155 -14 23 -103 172 -116 195 -6 11 -29 50 -52 88 -23 37 -42 70
-42 73 0 3 -13 24 -28 47 -16 23 -32 51 -36 61 -3 10 -8 17 -10 15 -3 -2 -188
-369 -411 -814 -224 -446 -428 -850 -453 -900 -25 -49 -47 -96 -48 -103 -1 -7
-7 -18 -12 -25 -6 -7 -89 -169 -185 -361 -96 -192 -177 -345 -180 -340 -3 5
-8 45 -12 89 -3 44 -8 91 -10 105 -2 14 -6 45 -9 70 -3 25 -10 77 -15 115 -6
39 -13 88 -15 110 -3 22 -8 56 -11 75 -24 146 -38 225 -50 290 -8 41 -16 86
-19 100 -2 14 -12 61 -21 105 -9 44 -19 89 -21 100 -4 22 -83 334 -88 350 -1
6 -6 24 -10 40 -5 17 -17 59 -28 95 -11 36 -21 72 -23 80 -2 8 -11 35 -19 59
-9 24 -18 53 -21 65 -5 24 -60 177 -81 223 -8 17 -14 33 -14 36 0 2 -7 21 -15
41 -8 20 -15 38 -15 41 0 3 -9 21 -20 40 -11 20 -20 42 -20 50 0 8 -5 15 -12
15 -6 0 -9 2 -6 6 6 5 -77 170 -118 236 -13 21 -24 40 -24 43 0 3 -5 11 -10
18 -6 7 -37 48 -69 92 -75 101 -117 145 -198 206 -85 65 -173 107 -239 113
-11 1 -24 5 -30 8 -10 7 -113 7 -149 1z m118 -495 c59 -41 124 -122 204 -253
25 -41 143 -289 148 -310 1 -5 7 -21 13 -35 23 -54 82 -220 112 -320 68 -224
84 -282 129 -475 28 -123 35 -156 47 -215 2 -14 7 -36 10 -50 3 -14 8 -36 10
-50 3 -14 11 -61 19 -105 8 -44 16 -93 19 -110 3 -16 8 -48 11 -70 4 -22 8
-53 10 -70 2 -16 6 -43 8 -60 11 -65 18 -112 22 -155 3 -25 7 -54 9 -66 12
-62 17 -186 7 -180 -6 4 -11 3 -11 -3 0 -6 -8 -7 -22 -2 -12 4 -36 5 -53 2
-16 -4 -41 -5 -55 -4 -38 5 -122 3 -131 -2 -4 -3 -10 -1 -13 4 -3 5 -21 6 -38
2 -18 -4 -42 -6 -53 -4 -38 4 -61 5 -200 4 -217 -2 -269 -2 -285 -2 -8 0 -44
0 -80 0 -36 0 -72 0 -80 0 -8 0 -44 0 -80 0 -36 0 -72 0 -80 0 -8 0 -44 0 -80
0 -36 0 -72 0 -80 0 -8 0 -53 0 -98 1 l-84 0 6 58 c4 31 9 71 12 87 3 17 7 46
9 65 2 19 6 57 10 84 3 26 8 62 10 80 2 17 6 48 9 69 3 20 8 54 11 75 3 20 7
48 10 62 2 14 7 41 9 60 3 19 8 46 11 60 2 14 7 45 9 70 5 40 37 226 51 290 3
14 8 39 10 55 23 133 108 519 125 565 5 14 12 36 14 50 9 45 90 305 113 360 3
8 7 17 8 20 24 71 101 227 143 295 56 87 103 136 140 144 2 1 18 -9 35 -21z
m2623 -1019 c8 -17 65 -115 126 -218 61 -102 118 -199 128 -216 9 -16 32 -55
49 -85 18 -30 36 -62 41 -70 96 -165 206 -349 218 -362 8 -10 12 -18 8 -18 -4
0 4 -15 17 -32 13 -18 27 -40 31 -48 3 -8 15 -30 27 -49 17 -28 99 -168 210
-356 13 -22 27 -43 32 -46 5 -4 -18 -7 -52 -8 -34 0 -66 -3 -71 -6 -5 -3 -11
-1 -14 4 -3 5 -21 6 -38 2 -18 -4 -44 -5 -58 -4 -38 5 -122 3 -131 -2 -4 -3
-10 -1 -13 4 -3 5 -21 6 -38 2 -18 -4 -44 -5 -58 -4 -38 5 -122 3 -131 -2 -4
-3 -10 -1 -13 4 -3 5 -21 6 -38 2 -18 -4 -44 -5 -58 -4 -38 5 -122 3 -131 -2
-4 -3 -10 -1 -13 4 -3 5 -21 6 -38 2 -18 -4 -44 -5 -58 -4 -38 5 -122 3 -131
-2 -4 -3 -10 -1 -13 4 -3 5 -21 6 -38 2 -18 -4 -44 -5 -58 -4 -38 5 -122 3
-131 -2 -4 -3 -10 -1 -13 4 -3 5 -21 6 -38 2 -18 -4 -42 -6 -53 -4 -36 4 -59
4 -132 3 -40 -1 -77 1 -82 4 -5 4 -11 2 -13 -3 -1 -4 -11 -6 -20 -2 -16 6 -16
8 -2 36 9 17 182 362 386 768 204 405 375 737 379 737 5 0 16 -14 25 -31z
m-4726 -9 c0 -5 36 -84 81 -177 45 -92 97 -202 116 -243 20 -41 60 -127 91
-190 49 -105 104 -220 168 -356 13 -28 24 -56 24 -62 0 -7 5 -12 10 -12 6 0
10 -4 10 -10 0 -5 27 -65 59 -132 117 -243 149 -313 147 -316 -2 -2 -146 -2
-186 0 -8 0 -35 0 -60 -1 -40 -2 -160 -3 -200 -2 -8 0 -44 0 -80 0 -36 0 -72
0 -80 0 -8 0 -44 0 -80 0 -36 0 -72 0 -80 0 -8 0 -44 0 -80 0 -36 0 -72 0 -80
0 -8 0 -44 0 -80 0 -36 0 -72 0 -80 0 -8 0 -44 0 -80 0 -36 0 -72 0 -80 0 -8
0 -44 0 -80 0 -36 0 -72 0 -80 0 -8 0 -45 1 -82 1 l-67 1 23 42 c22 39 44 81
132 245 21 37 54 97 75 134 22 36 39 69 39 72 0 3 15 31 34 63 18 32 49 87 68
123 20 36 50 92 68 125 18 33 43 78 55 100 12 22 39 72 60 110 169 306 245
447 245 451 0 3 7 16 16 29 15 23 34 26 34 5z m-1016 -1983 c3 3 38 5 78 4 70
-2 83 -2 111 0 6 0 21 0 32 -1 18 -2 163 -2 208 0 24 0 71 1 112 1 19 0 41 0
48 0 6 0 21 0 32 -1 11 0 54 -1 95 -1 74 0 88 0 113 2 6 0 21 0 32 -1 18 -2
163 -2 208 0 24 0 71 1 112 1 19 0 41 0 48 0 6 0 21 0 32 -1 11 0 54 -1 95 -1
74 0 88 0 113 2 6 0 21 0 32 -1 11 -1 58 -2 105 -1 47 0 92 0 100 -1 8 0 20 1
25 2 6 1 20 2 32 1 22 -1 22 -2 7 -42 -8 -23 -16 -51 -19 -63 -3 -19 -47 -147
-62 -186 -3 -8 -8 -23 -10 -33 -1 -10 -10 -31 -18 -47 -9 -17 -15 -32 -14 -35
1 -9 -119 -328 -151 -400 -10 -22 -39 -89 -65 -150 -26 -60 -66 -146 -89 -190
-22 -44 -41 -82 -41 -85 0 -3 -7 -16 -15 -30 -35 -57 -40 -67 -67 -117 -15
-29 -31 -53 -35 -53 -4 0 -8 -5 -8 -11 0 -29 -155 -233 -245 -324 -173 -174
-300 -219 -450 -160 -172 69 -357 263 -546 576 -54 90 -229 429 -229 444 0 4
-10 27 -21 53 -33 71 -102 246 -102 257 0 10 152 295 163 305 3 3 16 28 30 55
50 97 95 180 101 185 4 3 9 15 13 27 8 24 46 34 82 21 12 -3 24 -4 28 -1z
m2560 0 c3 3 38 5 78 4 70 -2 83 -2 111 0 6 0 21 0 32 -1 18 -2 163 -2 208 0
24 0 71 1 112 1 19 0 41 0 48 0 6 0 21 0 32 -1 11 0 27 0 35 0 8 1 38 1 65 1
28 0 57 0 65 0 8 0 24 0 35 -1 11 0 64 0 118 1 54 1 100 -1 103 -4 3 -2 19 -1
37 3 18 4 41 4 52 0 11 -4 24 -5 29 -2 5 3 67 4 139 4 125 -1 157 -9 157 -35
0 -7 12 -42 26 -78 l26 -67 -282 -564 c-155 -309 -286 -567 -291 -573 -5 -5
-9 -17 -9 -26 0 -10 -3 -19 -7 -21 -5 -1 -45 -78 -91 -170 -46 -93 -86 -168
-88 -168 -9 0 -204 413 -204 430 0 6 -4 10 -10 10 -5 0 -10 4 -10 9 0 4 -21
53 -47 107 -26 54 -47 101 -48 104 -1 3 -24 52 -52 110 -28 58 -76 159 -108
225 -123 259 -149 312 -176 369 -16 33 -29 65 -29 73 0 7 -4 13 -9 13 -5 0
-13 9 -16 21 -4 11 -28 67 -55 122 -48 104 -49 124 -4 107 12 -5 24 -6 28 -3z
m2256 3 c7 5 23 4 36 0 12 -5 24 -7 26 -4 3 2 43 4 89 4 46 -1 92 -1 102 0 49
1 76 1 112 0 22 -1 56 -2 75 -1 19 0 44 1 55 1 11 0 62 0 113 1 51 1 95 -1 98
-4 3 -2 19 -1 37 3 18 4 41 4 52 0 11 -4 24 -5 29 -2 4 2 92 4 195 3 102 -1
192 -2 199 -2 12 1 40 1 117 2 22 0 45 0 50 0 6 0 19 0 30 -1 11 0 27 0 35 0
8 1 24 1 35 0 18 -2 163 -2 208 0 29 1 80 1 124 0 34 -1 41 -4 38 -18 -2 -9
-9 -39 -15 -67 -6 -27 -14 -61 -16 -75 -3 -14 -19 -81 -35 -150 -17 -69 -32
-134 -34 -145 -1 -11 -10 -45 -19 -75 -15 -54 -53 -190 -60 -220 -7 -28 -48
-155 -67 -208 -10 -28 -19 -54 -19 -57 -1 -10 -27 -84 -45 -130 -7 -16 -25
-61 -40 -100 -29 -73 -126 -276 -147 -310 -7 -11 -32 -49 -54 -85 -77 -121
-151 -196 -232 -237 -46 -22 -61 -25 -113 -20 -32 4 -70 14 -84 23 -14 9 -25
13 -25 10 0 -14 -121 78 -183 138 -100 97 -256 289 -297 366 -7 13 -17 29 -21
34 -18 22 -60 89 -106 169 -25 45 -53 90 -61 100 -8 9 -11 17 -7 17 4 0 1 8
-7 18 -23 25 -252 491 -304 617 -9 22 -26 63 -38 90 -53 118 -53 102 1 213 46
97 49 101 83 104 19 2 44 0 56 -3 11 -4 27 -4 34 1z"/>
</g>
</svg>
